<svg xmlns="http://www.w3.org/2000/svg" width="1200" height="1200" viewBox="0 0 1000 1000"><path fill="#3a86ff" d="M150 150h700v700H150z"/><path fill="#8338ec" d="M200 200h600v600H200z"/><path fill="white" d="M300 300h400v400H300z"/><path fill="#3a86ff" d="M350 350h300v300H350z"/><path fill="white" d="M400 400h200v200H400z"/><path fill="#8338ec" d="M450 450h100v100H450z"/><path stroke="white" stroke-width="20" d="M300 300l400 400M700 300L300 700"/><path fill="white" d="M600 250h30v80h-30zM600 850h30v80h-30zM150 600h80v30H150zM150 250h80v30H150zM150 330h80v30H150zM150 410h80v30H150zM150 490h80v30H150zM150 570h80v30H150zM150 650h80v30H150zM150 730h80v30H150zM150 810h80v30H150z"/></svg>