<svg xmlns="http://www.w3.org/2000/svg" viewBox="0 0 512 512"><path fill="#b33ef3" d="M256 8C119 8 8 119 8 256s111 248 248 248 248-111 248-248S393 8 256 8zm0 448c-110.5 0-200-89.5-200-200S145.5 56 256 56s200 89.5 200 200-89.5 200-200 200zm92.49 0h-76.98c-16.38 0-29.65-14.01-29.65-32 0-18.54 14.65-33.4 32-33.4h61.98c17.67 0 32 15.33 32 32s-14.33 32-32 32zm-36.49-128c-8.84 0-16-7.16-16-16s7.16-16 16-16 16 7.16 16 16-7.16 16-16 16zm64 0c-8.84 0-16-7.16-16-16s7.16-16 16-16 16 7.16 16 16-7.16 16-16 16z"/></svg>